<svg fill="#fff" xmlns:xlink="http://www.w3.org/1999/xlink" id="Capa_1" enable-background="new 0 0 512 512" height="512" viewBox="0 0 512 512" width="512" xmlns="http://www.w3.org/2000/svg"><g><path d="m481 0h-90v29.013c.129 20.76-.048 34.845-5.092 53.176l-3.97 14.43 28.166 7.817c-2.47 6.61-5.215 12.823-8.23 18.599l-24.757-16.145-8.137 12.828c-10.49 16.538-25.824 31.176-44.344 42.331l-12.771 7.692 14.925 25.128c-6.353 3.087-12.573 5.653-18.711 7.706l-6.916-29.968-15.481 4.889c-10.159 3.209-42.218 5.416-59.367 0l-15.481-4.889-6.916 29.968c-6.138-2.054-12.357-4.619-18.711-7.706l14.925-25.127-12.771-7.692c-18.521-11.155-33.854-25.793-44.344-42.331l-8.137-12.828-24.756 16.146c-3.015-5.776-5.76-11.99-8.23-18.599l28.165-7.817-3.969-14.429c-4.812-17.494-5.241-29.108-5.092-53.177v-29.015h-89.998l.037 28.834c-.218 29.296.696 49.745 8.316 77.368l3.995 14.483 29.546-8.2c3.482 9.666 7.496 18.684 12.013 26.998l-25.457 16.602 8.007 12.524c17.953 28.081 43.477 52.542 73.809 70.738l12.92 7.75 15.656-26.358c9.24 4.626 18.301 8.333 27.307 11.172l-6.604 28.617 13.343 4.106c6.54 2.013 20.458 4.439 37.113 5.56v31.88c-50.817 7.301-90 51.119-90 103.924 0 58.448 47.103 106 105 106s105-47.552 105-106c0-52.805-39.183-96.623-90-103.924v-31.544c12.85-.638 25.761-2.4 37.113-5.893l13.343-4.106-6.604-28.617c9.006-2.839 18.068-6.546 27.307-11.172l15.655 26.357 12.92-7.75c30.332-18.196 55.854-42.657 73.81-70.738l8.008-12.524-25.458-16.603c4.516-8.313 8.53-17.331 12.012-26.997l29.546 8.2 3.995-14.483c7.62-27.622 8.535-48.002 8.316-77.368zm-416.207 83.599c-3.505-17.594-3.894-35.815-3.764-53.609h29.963c-.092 15.147-.014 30.616 2.782 45.566zm79.265 121.805c-16.547-11.631-31.043-25.448-42.785-40.778l25.216-16.445c9.191 11.633 20.318 22.219 32.942 31.341zm36.942 200.596c0-36.22 25.808-66.522 60-73.491v64.83l-56.214 32.455c-2.444-7.49-3.786-15.484-3.786-23.794zm75 76c-22.508 0-42.716-10.113-56.475-26.074l56.475-32.605 56.475 32.606c-13.759 15.96-33.967 26.073-56.475 26.073zm75-76c0 8.31-1.342 16.304-3.786 23.795l-56.214-32.455v-64.83c34.192 6.968 60 37.27 60 73.49zm-104.618-167.351 6.742-29.213c15.066 1.966 32.323 1.52 45.712-.175l6.859 29.724c-19.903 3.061-43.668 1.828-59.313-.336zm141.56-33.245-15.373-25.882c12.624-9.122 23.751-19.709 32.943-31.341l25.216 16.445c-11.743 15.33-26.239 29.147-42.786 40.778zm79.265-121.805-28.981-8.043c2.793-14.919 2.875-30.363 2.782-45.556h29.963c.13 17.789-.26 36.008-3.764 53.599z"></path></g></svg>