<svg  fill="#fff" version="1.1" id="Capa_1" xmlns="http://www.w3.org/2000/svg" xmlns:xlink="http://www.w3.org/1999/xlink" x="0px" y="0px" viewBox="0 0 611.998 611.998" style="enable-background:new 0 0 611.998 611.998;" xml:space="preserve" width="1887"  height="1887" ><g>	<g>		<path d="M424.546,104.617l23.071,32.499l0,0l38.456,54.169l-1.851,8.856c-0.347,1.626-3.67,16.542-15.224,38.881			c-17.544,33.913-53.591,84.072-125.671,130.44c-13.701,9.049-137.734,88.911-208.921,65.923l-8.252-2.667l-20.366-40.571h-0.006			L74.884,330.6l0,0l-2.905-5.79C38.677,359.134-32.388,446.227,16.853,522.773c0,0,75.345,127.393,293.925-13.232			c0,0,349.476-230.225,295.57-390.496C606.353,119.051,579.702,41.669,424.546,104.617z"></path>		<path d="M280.2,262.402c90.833-58.424,121.545-119.347,130.285-141.808l-5.43-7.641l-46.496-65.48			C311.105,4.479,171.34,99.791,171.34,99.791C25.618,193.541,56.26,247.331,56.26,247.331l31.349,62.44l10.212,20.334			C147.189,340.555,245.869,285.03,280.2,262.402z M127.447,225.327c-2.371-5.199-0.084-11.349,5.122-13.721			c37.698-17.204,83.372-46.869,83.834-47.164c40.526-26.072,66.11-48.643,80.441-62.993c4.042-4.049,10.597-4.049,14.646-0.013			c3.278,3.271,3.901,8.187,1.883,12.088c-0.476,0.919-1.105,1.787-1.877,2.558c-21.889,21.921-50.101,44.041-83.841,65.744			c-1.87,1.215-47.357,30.764-86.488,48.623C135.969,232.827,129.825,230.532,127.447,225.327z"></path>		<path d="M130.66,395.528l10.109,20.141c63.777,20.597,191.35-63.636,191.35-63.636c114.54-73.687,131.821-156.146,131.821-156.146			l-12.538-17.667c-1.208,2.622-2.571,5.43-4.152,8.464c-16.388,31.676-53.353,84.997-131.879,135.517			C310.437,325.459,201.564,396.582,130.66,395.528z"></path>	</g></g><g></g><g></g><g></g><g></g><g></g><g></g><g></g><g></g><g></g><g></g><g></g><g></g><g></g><g></g><g></g></svg>