<svg fill="#fff" version="1.1" id="Capa_1" xmlns="http://www.w3.org/2000/svg" xmlns:xlink="http://www.w3.org/1999/xlink" x="0px" y="0px" width="36.518" height="36.518" viewBox="0 0 36.518 36.518" style="enable-background:new 0 0 36.518 36.518;" xml:space="preserve"><g>	<g>		<path d="M32.761,11.475c0.317,0,0.625-0.047,0.924-0.117C33.23,8.914,32.871,7.5,32.871,7.5c-0.875-0.883-2.161-1.602-3.475-2.169			c-0.396,0.621-0.636,1.354-0.636,2.145C28.761,9.681,30.554,11.475,32.761,11.475z"></path>		<path d="M2.837,11.357c0.297,0.07,0.604,0.117,0.923,0.117c2.206,0,4-1.794,4-4c0-0.791-0.238-1.522-0.635-2.145			c-1.313,0.568-2.6,1.286-3.475,2.169C3.65,7.499,3.29,8.913,2.837,11.357z"></path>		<path d="M32.761,12.475c-2.758,0-5-2.242-5-5c0-0.924,0.269-1.778,0.707-2.521c-2.199-0.835-4.222-1.238-4.222-1.238l-0.038-2.371			c-1.798-1.032-3.732-1.269-5.031-1.328c-0.458-0.021-1.375-0.021-1.833,0c-1.299,0.061-3.234,0.296-5.031,1.328l-0.04,2.371			c0,0-2.021,0.404-4.222,1.239c0.438,0.743,0.708,1.598,0.708,2.521c0,2.758-2.243,5-5,5c-0.379,0-0.746-0.051-1.101-0.131			C1.78,17.355,0.696,25.753,1.093,35.163h0.456v0.25c0,0.553,0.481,1,1.075,1h2.519c0.594,0,1.075-0.447,1.075-1v-0.25h0.465			c0,0-0.479-14.776,2.076-18.562v13.844v1.244v3.337c0,0,4.791,1.32,8.783,1.492V2.339c0,0-2.236,0.13-3.553-0.387			c0,0,0.28-0.937,3.354-0.903c0.458,0.005,1.374-0.007,1.833,0c3.045,0.048,3.354,0.903,3.354,0.903			c-1.316,0.517-3.553,0.387-3.553,0.387v34.179c3.993-0.172,8.784-1.492,8.784-1.492v-3.337v-1.243V16.6			c2.555,3.785,2.076,18.563,2.076,18.563H30.3v0.25c0,0.552,0.48,1,1.074,1h2.52c0.595,0,1.076-0.448,1.076-1v-0.25h0.455			c0.396-9.412-0.688-17.812-1.563-22.819C33.507,12.424,33.14,12.475,32.761,12.475z"></path>	</g></g><g></g><g></g><g></g><g></g><g></g><g></g><g></g><g></g><g></g><g></g><g></g><g></g><g></g><g></g><g></g></svg>