<svg fill="#fff" version="1.1" id="Capa_1" xmlns="http://www.w3.org/2000/svg" xmlns:xlink="http://www.w3.org/1999/xlink" x="0px" y="0px" viewBox="0 0 512 512" style="enable-background:new 0 0 512 512;" xml:space="preserve" width="512"  height="512" ><g>	<g>		<path d="M424.091,177.528C398.822,142.138,357.748,121,314.242,121H197.758c-43.506,0-84.58,21.138-109.849,56.528L64.003,211H136			c52.178,0,97.529,29.751,120,73.184C278.471,240.751,323.822,211,376,211h71.997L424.091,177.528z"></path>	</g></g><g>	<g>		<path d="M256,451c-22.223,0-40.75,15.985-44.315,37.535L256,512l43.702-24.276C295.579,463.903,276.107,451,256,451z"></path>	</g></g><g>	<g>		<path d="M56.886,0l49.547,115.607c21.871-14.52,46.969-23.943,73.415-26.847C152.115,44.767,108.082,12.484,56.886,0z"></path>	</g></g><g>	<g>		<path d="M31,15.734v186.535l32.49-45.494c5.592-7.83,11.959-14.923,18.719-21.555L31,15.734z"></path>	</g></g><g>	<g>		<path d="M332.151,88.762c26.448,2.904,51.546,12.328,73.418,26.849L455.125,0C403.925,12.482,359.886,44.766,332.151,88.762z"></path>	</g></g><g>	<g>		<path d="M429.793,135.223c6.76,6.631,13.125,13.724,18.717,21.554l32.49,45.49V15.756L429.793,135.223z"></path>	</g></g><g>	<g>		<path d="M136,241H42.578l-28.606,41.602C1.565,299.96-2.859,321.845,1.828,342.66c4.688,20.83,18.076,38.716,36.738,49.087			l146.344,81.914c8.941-28.549,30.533-45.787,56.089-50.947V346C241,288.109,193.891,241,136,241z M150.99,346.097			c0-24.813-20.187-45-45-45v-30c41.355,0,75,33.645,75,75H150.99z"></path>	</g></g><g>	<g>		<path d="M498.028,282.602L469.422,241H376c-57.891,0-105,47.109-105,105v76.725c25.075,5.198,47.477,22.814,56.327,50.806			l147.228-81.784c18.647-10.371,30.929-28.257,35.617-49.087C514.859,321.845,510.435,299.96,498.028,282.602z M405.99,301.097			c-24.813,0-45,20.187-45,45h-30c0-41.355,33.645-75,75-75V301.097z"></path>	</g></g><g></g><g></g><g></g><g></g><g></g><g></g><g></g><g></g><g></g><g></g><g></g><g></g><g></g><g></g><g></g></svg>