<svg fill="#fff" xmlns:xlink="http://www.w3.org/1999/xlink" height="448" viewBox="-120 0 448 448" width="448" xmlns="http://www.w3.org/2000/svg"><path d="m0 448h72.59375l23.40625-304.617188c.324219-4.164062 3.796875-7.378906 7.976562-7.378906 4.175782 0 7.652344 3.214844 7.976563 7.378906l23.453125 304.617188h72.59375v-368.640625c-24.527344-3.566406-43.792969-22.832031-47.359375-47.359375h-16.640625v40c0 13.253906-10.746094 24-24 24h-16c-4.417969 0-8-3.582031-8-8v-56h-48.640625c-3.566406 24.527344-22.832031 43.792969-47.359375 47.359375zm0 0"></path><path d="m0 0h96v16h-96zm0 0"></path><path d="m0 63.199219c15.699219-3.234375 27.964844-15.5 31.199219-31.199219h-31.199219zm0 0"></path><path d="m144 0h64v16h-64zm0 0"></path><path d="m208 32h-31.199219c3.234375 15.699219 15.5 27.964844 31.199219 31.199219zm0 0"></path><path d="m112 0h16v16h-16zm0 0"></path><path d="m128 72v-40h-16v48h8c4.417969 0 8-3.582031 8-8zm0 0"></path></svg>