<svg fill="#fff" version="1.1" id="Capa_1" xmlns="http://www.w3.org/2000/svg" xmlns:xlink="http://www.w3.org/1999/xlink" x="0px" y="0px" viewBox="0 0 512 512" style="enable-background:new 0 0 512 512;" xml:space="preserve" width="1887"  height="1887" ><g>	<g>		<path d="M456.502,274.275h-6.699c-29.795,0-58.876-9.639-82.748-27.276l-37.265,37.265l-21.224-21.224l35.153-35.153			l-17.544-14.601l-38.767,38.767l-21.224-21.224l36.824-36.824l-17.545-14.602l-40.438,40.438l-21.224-21.224l38.496-38.496			l-34.089-28.372c-4.292-3.573-9.732-5.54-15.317-5.54c-13.202,0-23.942,10.74-23.942,23.942v13.035			c0,42.976-34.964,77.94-77.94,77.94c-30.165,0-57.893-17.666-70.64-45.006l-3.669-7.868c-3.149-6.754-9.998-11.119-17.45-11.119			C8.636,177.133,0,185.769,0,196.386v128.33h512C509.314,296.457,485.453,274.275,456.502,274.275z"></path>	</g></g><g>	<g>		<path d="M5.787,354.731c9.125,18.386,28.091,31.06,49.971,31.06h400.744c21.88,0,40.847-12.673,49.971-31.06H5.787z"></path>	</g></g><g></g><g></g><g></g><g></g><g></g><g></g><g></g><g></g><g></g><g></g><g></g><g></g><g></g><g></g><g></g></svg>