<svg fill="#fff" xmlns:xlink="http://www.w3.org/1999/xlink" height="512" viewBox="-10 0 511 512" width="512" xmlns="http://www.w3.org/2000/svg"><path d="m154.699219 10.160156c-2.070313-6.074218-7.777344-10.160156-14.199219-10.160156h-65c-8.28125 0-15 6.714844-15 15v140c0 24.8125-20.1875 45-45 45-8.28125 0-15 6.714844-15 15v146.96875h230v-126.96875c0-1.644531-.269531-3.28125-.800781-4.839844zm-24.199219 306.808594c0 8.285156-6.714844 15-15 15s-15-6.714844-15-15v-56c0-8.285156 6.714844-15 15-15s15 6.714844 15 15zm0 0"></path><path d="m.5 391.96875h230v30h-230zm0 0"></path><path d="m.5 497c0 8.285156 6.714844 15 15 15h170c24.8125 0 45-20.1875 45-45v-15.03125h-230zm0 0"></path><path d="m200.136719 50.46875 45.613281 133.808594 45.617188-133.808594zm0 0"></path><path d="m476.003906 200c-24.816406 0-45-20.1875-45-45v-140c0-8.285156-6.71875-15-15-15h-65c-6.421875 0-12.128906 4.085938-14.199218 10.160156l-75 220c-.53125 1.558594-.800782 3.195313-.800782 4.839844v126.96875h230v-146.96875c0-8.285156-6.71875-15-15-15zm-85 116.96875c0 8.285156-6.71875 15-15 15-8.285156 0-15-6.714844-15-15v-56c0-8.285156 6.714844-15 15-15 8.28125 0 15 6.714844 15 15zm0 0"></path><path d="m261.003906 391.96875h230v30h-230zm0 0"></path><path d="m261.003906 467c0 24.8125 20.183594 45 45 45h170c8.28125 0 15-6.714844 15-15v-45.03125h-230zm0 0"></path></svg>